<svg id="Layer_1" data-name="Layer 1" xmlns="http://www.w3.org/2000/svg" width="16" height="16" viewBox="0 0 16 16"><path d="M2.4261,2.7408h.1724q2.0593,0,4.1189-.0023a.3436.3436,0,0,1,.27.11q1.4177,1.4257,2.84,2.847a.3145.3145,0,0,1,.1007.1875c.0062,1.058.0045,2.116.0045,3.2181L4.9873,4.1825v9.0648H2.4261Z"/><path d="M13.5739,13.2613h-.4676c-1.27,0-2.54.0019-3.8094-.0045a.3944.3944,0,0,1-.2514-.1017Q7.6169,11.74,6.201,10.3129a.3343.3343,0,0,1-.1025-.2036C6.092,9.0728,6.094,8.0363,6.0943,7c0-.0195.0039-.0389.0094-.0908l4.9253,4.897V2.7505h2.5449Z"/></svg>